<svg width="26" height="26" viewBox="0 0 26 26" fill="none" xmlns="http://www.w3.org/2000/svg">
<g clip-path="url(#clip0_51_129)">
<path d="M1.9304 12.6379C1.70635 12.5088 1.41979 12.5854 1.29055 12.8094C0.942805 13.4118 0.660105 14.0042 0.450227 14.5702C0.360242 14.8128 0.483945 15.0823 0.726527 15.1722C0.780254 15.1922 0.835199 15.2016 0.889281 15.2016C1.07956 15.2016 1.25856 15.0848 1.32864 14.8959C1.52019 14.3791 1.78039 13.8347 2.10184 13.2778C2.23118 13.0538 2.15445 12.7673 1.9304 12.6379Z" fill="white"/>
<path d="M16.4397 9.07779C16.2427 8.91001 15.9472 8.93398 15.7794 9.13096C15.3963 9.58139 15.0324 10.1066 14.6671 10.7367C14.5374 10.9605 14.6137 11.2471 14.8375 11.3769C14.9115 11.4197 14.9922 11.4401 15.072 11.4401C15.2336 11.4401 15.3908 11.3564 15.4777 11.2065C15.8144 10.6256 16.1465 10.1452 16.493 9.7381C16.6606 9.54107 16.6367 9.24547 16.4397 9.07779Z" fill="white"/>
<path d="M17.1978 2.68153C17.1538 2.4265 16.9111 2.25542 16.6565 2.2997C16.0359 2.40685 15.406 2.54797 14.7844 2.71905C14.535 2.78766 14.3885 3.04548 14.4571 3.29496C14.5143 3.50276 14.7029 3.63921 14.9085 3.63921C14.9495 3.63921 14.9914 3.63378 15.033 3.6223C15.6253 3.45929 16.2252 3.32493 16.8159 3.22286C17.0708 3.17878 17.2418 2.93645 17.1978 2.68153Z" fill="white"/>
<path d="M14.4154 12.2124C14.1802 12.1049 13.9021 12.2085 13.7946 12.4439C13.5531 12.9726 13.3058 13.5619 13.0595 14.1952C12.9657 14.4364 13.0851 14.7079 13.3262 14.8016C13.382 14.8233 13.4395 14.8336 13.4959 14.8336C13.6835 14.8336 13.8605 14.7202 13.9325 14.5349C14.1725 13.9182 14.4127 13.3457 14.6468 12.8332C14.7543 12.5978 14.6506 12.3198 14.4154 12.2124Z" fill="white"/>
<path d="M11.7953 19.2265C11.5596 19.1209 11.2821 19.2266 11.1763 19.4628C10.913 20.0512 10.6234 20.578 10.3156 21.0285C10.1696 21.2421 10.2244 21.5336 10.438 21.6796C10.5189 21.7348 10.6108 21.7612 10.7019 21.7612C10.8515 21.7612 10.9984 21.6899 11.0891 21.5571C11.4283 21.0606 11.7454 20.4847 12.0316 19.8455C12.1372 19.6093 12.0314 19.3322 11.7953 19.2265Z" fill="white"/>
<path d="M10.1504 5.12096C10.021 4.89687 9.73446 4.82024 9.51046 4.94958C8.96462 5.26488 8.42095 5.6075 7.89466 5.96789C7.68112 6.11404 7.62658 6.40558 7.77273 6.61901C7.86353 6.75155 8.01039 6.82285 8.15973 6.82285C8.25089 6.82285 8.34305 6.79624 8.4239 6.74084C8.93064 6.3939 9.45384 6.06418 9.97907 5.76081C10.2032 5.63147 10.2797 5.34496 10.1504 5.12096Z" fill="white"/>
<path d="M13.0052 15.6808C12.7608 15.5959 12.4939 15.7255 12.4092 15.9699C12.2159 16.5272 12.0161 17.1291 11.8154 17.7587C11.7367 18.0052 11.8728 18.2687 12.1193 18.3473C12.1666 18.3623 12.2146 18.3696 12.2617 18.3696C12.4601 18.3696 12.6444 18.2425 12.7079 18.0434C12.9064 17.4212 13.1036 16.8268 13.2943 16.2769C13.379 16.0324 13.2496 15.7655 13.0052 15.6808Z" fill="white"/>
<path d="M25.622 4.75468C25.5168 4.51819 25.2454 4.41206 25.0094 4.51708C24.773 4.62229 24.6581 4.89915 24.7633 5.13549C24.9679 5.59552 25.0632 6.13979 25.0632 6.75333V6.771C25.0632 7.02968 25.2729 7.23941 25.5316 7.23941C25.7903 7.23941 26 7.02968 26 6.771V6.75333C26 6.00776 25.8804 5.33531 25.622 4.75468Z" fill="white"/>
<path d="M25.4195 8.1699C25.1681 8.10927 24.915 8.26385 24.8542 8.51516C24.7234 9.05614 24.5364 9.63509 24.2983 10.2359C24.2031 10.4764 24.3207 10.7487 24.5612 10.844C24.6178 10.8664 24.6763 10.8771 24.7337 10.8771C24.9201 10.8771 25.0964 10.7649 25.1693 10.5811C25.4234 9.93968 25.6237 9.31868 25.7647 8.7353C25.8256 8.48383 25.671 8.23069 25.4195 8.1699Z" fill="white"/>
<path d="M19.7737 7.5894C19.7454 7.33224 19.5131 7.1476 19.2569 7.17507C18.5399 7.25399 17.902 7.46234 17.3063 7.81202C17.0832 7.94304 17.0085 8.23005 17.1396 8.45313C17.2268 8.60172 17.3833 8.68449 17.544 8.68449C17.6244 8.68449 17.7061 8.66367 17.7807 8.62C18.2601 8.33852 18.7764 8.17049 19.3593 8.10635C19.6165 8.07801 19.802 7.8466 19.7737 7.5894Z" fill="white"/>
<path d="M23.9391 13.1242C24.0697 12.8949 24.2163 12.6277 24.3705 12.3287C24.4891 12.0988 24.3988 11.8163 24.1689 11.6977C23.9394 11.5793 23.6565 11.6692 23.538 11.8993C23.2583 12.4416 23.0013 12.8803 22.832 13.1573C18.8064 16.0733 20.1934 18.9778 20.2562 19.1038C20.3714 19.3338 20.6492 19.4262 20.8802 19.3132C21.1112 19.2002 21.207 18.9202 21.096 18.6883C21.0511 18.5947 20.1094 16.5242 22.9977 14.2087C23.0041 14.2089 23.0106 14.2101 23.017 14.2101C23.1358 14.2101 23.2525 14.1642 23.341 14.0792C23.6654 14.9229 24.1109 16.6407 23.5038 18.7656C23.4327 19.0144 23.5768 19.2737 23.8255 19.3446C23.8685 19.357 23.9117 19.3628 23.9544 19.3628C24.1582 19.3628 24.3457 19.2287 24.4045 19.0229C25.2928 15.9144 24.2004 13.6102 23.9391 13.1242Z" fill="white"/>
<path d="M24.2925 3.14065C23.7833 2.78376 23.1577 2.50959 22.4328 2.32572C22.182 2.26224 21.9272 2.41402 21.8636 2.66463C21.8 2.91539 21.9517 3.17021 22.2025 3.23384C22.8168 3.38963 23.3391 3.61637 23.7548 3.90775C23.8367 3.96509 23.9304 3.99266 24.0232 3.99266C24.1709 3.99266 24.3161 3.92309 24.4072 3.79304C24.5557 3.58123 24.5043 3.28909 24.2925 3.14065Z" fill="white"/>
<path d="M1.22627 18.228C1.12496 17.9457 1.04625 17.6662 0.992418 17.3973C0.955602 17.2127 0.936863 17.0126 0.936863 16.8033C0.936965 16.7299 0.93925 16.6552 0.943617 16.5796C0.958598 16.3213 0.761414 16.0997 0.503191 16.0848C0.243141 16.0677 0.0233594 16.267 0.00832812 16.5252C0.00294531 16.6183 0.000101563 16.7113 0 16.8026C0 17.0742 0.024832 17.3361 0.0738867 17.5811C0.136652 17.8949 0.227703 18.2191 0.344602 18.5446C0.413207 18.7357 0.593328 18.8548 0.785484 18.8548C0.837992 18.8548 0.891465 18.8459 0.943769 18.8271C1.18716 18.7398 1.31366 18.4715 1.22627 18.228Z" fill="white"/>
<path d="M13.5658 3.58509C13.475 3.34296 13.2049 3.22033 12.9627 3.31127C12.3742 3.53227 11.7818 3.7842 11.2021 4.05994C10.9684 4.1711 10.8691 4.45055 10.9802 4.6842C11.0605 4.85289 11.2285 4.95151 11.4036 4.95151C11.4709 4.95151 11.5394 4.93688 11.6044 4.90601C12.1604 4.64154 12.7283 4.40008 13.292 4.18832C13.5342 4.09732 13.6569 3.82726 13.5658 3.58509Z" fill="white"/>
<path d="M4.238 9.68814C4.0461 9.51472 3.75004 9.52939 3.57632 9.72135C3.13716 10.2069 2.7266 10.7048 2.356 11.2014C2.20127 11.4088 2.24392 11.7023 2.45126 11.857C2.53541 11.9198 2.63367 11.95 2.73112 11.95C2.87386 11.95 3.01483 11.885 3.1069 11.7618C3.45993 11.2887 3.85161 10.8136 4.27121 10.3498C4.44463 10.1579 4.42975 9.86166 4.238 9.68814Z" fill="white"/>
<path d="M23.1255 7.66479C22.4063 7.46898 21.7914 7.33298 21.2456 7.24884C20.9897 7.20882 20.7507 7.38473 20.7113 7.64041C20.6718 7.89615 20.8471 8.13533 21.1029 8.17468C21.6135 8.25345 22.1947 8.38228 22.8794 8.56864C22.9206 8.57987 22.962 8.58525 23.0027 8.58525C23.2089 8.58525 23.3977 8.44819 23.4544 8.23979C23.5224 7.99014 23.3752 7.73268 23.1255 7.66479Z" fill="white"/>
<path d="M9.81683 22.3839C9.65534 22.1821 9.36066 22.1493 9.15835 22.3109C8.69802 22.6794 8.20193 22.9258 7.68401 23.0433C7.43173 23.1005 7.27355 23.3515 7.33073 23.6037C7.38014 23.8211 7.57331 23.9686 7.78715 23.9686C7.82148 23.9686 7.85632 23.9649 7.8912 23.957C8.54857 23.8078 9.1718 23.5001 9.74385 23.0423C9.94581 22.8806 9.97841 22.5859 9.81683 22.3839Z" fill="white"/>
<path d="M20.491 2.05014C19.8873 2.0188 19.2162 2.02703 18.5641 2.07055C18.3058 2.08776 18.1106 2.311 18.1278 2.56912C18.1442 2.81663 18.3502 3.00635 18.5947 3.00635C18.6051 3.00635 18.6157 3.00599 18.6263 3.00533C19.2421 2.96415 19.8756 2.95633 20.4426 2.98573C20.7024 2.99959 20.9213 2.80048 20.9346 2.54221C20.948 2.28378 20.7494 2.06349 20.491 2.05014Z" fill="white"/>
<path d="M7.01934 7.17828C6.8575 6.97647 6.56271 6.94408 6.36086 7.10602C5.86259 7.50567 5.37702 7.92679 4.9174 8.35762C4.7287 8.53454 4.7192 8.83101 4.89612 9.01971C4.98829 9.11807 5.11296 9.16774 5.23793 9.16774C5.35275 9.16774 5.46777 9.12579 5.55826 9.04104C6.00026 8.62661 6.46755 8.22143 6.94708 7.83676C7.14893 7.67487 7.18128 7.38003 7.01934 7.17828Z" fill="white"/>
<path d="M6.04353 23.013C5.52464 22.8863 4.99769 22.6538 4.47713 22.3218C4.25902 22.1826 3.96927 22.247 3.83028 22.465C3.69124 22.6831 3.75527 22.9726 3.97348 23.1118C4.58082 23.499 5.20249 23.772 5.82121 23.9231C5.85863 23.9322 5.89601 23.9366 5.93272 23.9366C6.14362 23.9366 6.33516 23.7932 6.38742 23.5792C6.44881 23.3278 6.29474 23.0743 6.04353 23.013Z" fill="white"/>
<path d="M3.11772 21.2014C2.70669 20.7779 2.33538 20.309 2.01414 19.8078C1.87439 19.5899 1.58473 19.5266 1.36698 19.6661C1.14913 19.8058 1.08575 20.0955 1.2253 20.3133C1.58041 20.8673 1.99093 21.3856 2.44552 21.854C2.53734 21.9486 2.65947 21.9961 2.78165 21.9961C2.8992 21.9961 3.01686 21.9521 3.10791 21.8638C3.29347 21.6835 3.29794 21.387 3.11772 21.2014Z" fill="white"/>
</g>
<defs>
<clipPath id="clip0_51_129">
<rect width="26" height="26" fill="white"/>
</clipPath>
</defs>
</svg>
