<svg width="52" height="52" viewBox="0 0 52 52" fill="none" xmlns="http://www.w3.org/2000/svg">
<path d="M51.8829 25.7149L44.5019 18.3341V7.89584C44.5019 7.67488 44.3229 7.49584 44.1019 7.49584H33.6635L26.2829 0.114879C26.1328 -0.0352007 25.8672 -0.0352007 25.7173 0.114879L18.3366 7.49584H7.89776C7.6768 7.49584 7.49776 7.67488 7.49776 7.89584V18.3341L0.11712 25.7149C-0.03904 25.8712 -0.03904 26.1243 0.11712 26.2805L7.49776 33.6613V44.0995C7.49776 44.3205 7.6768 44.4995 7.89776 44.4995H18.3365L25.7171 51.8805C25.7922 51.9555 25.8938 51.9976 26 51.9976C26.1061 51.9976 26.2078 51.9554 26.2829 51.8805L33.6635 44.4995H44.1019C44.3229 44.4995 44.5019 44.3205 44.5019 44.0995V33.6613L51.8829 26.2805C51.9579 26.2054 52 26.1038 52 25.9976C52 25.8915 51.9579 25.7898 51.8829 25.7149ZM38.7472 31.2776V38.7445H31.2797L26 44.0245L20.7203 38.7445H13.2525V31.2776L7.97312 25.9976L13.2525 20.7176V13.2507H20.7203L26 7.97072L31.2797 13.2507H38.7472V20.7176L44.0269 25.9976L38.7472 31.2776Z" fill="white"/>
</svg>
